<?xml version="1.0" encoding="utf-8" standalone="no"?>
<!DOCTYPE svg PUBLIC "-//W3C//DTD SVG 1.1//EN"
  "http://www.w3.org/Graphics/SVG/1.1/DTD/svg11.dtd">
<svg xmlns:xlink="http://www.w3.org/1999/xlink" width="360pt" height="360pt" viewBox="0 0 360 360" xmlns="http://www.w3.org/2000/svg" version="1.1">
 <metadata>
  <rdf:RDF xmlns:dc="http://purl.org/dc/elements/1.1/" xmlns:cc="http://creativecommons.org/ns#" xmlns:rdf="http://www.w3.org/1999/02/22-rdf-syntax-ns#">
   <cc:Work>
    <dc:type rdf:resource="http://purl.org/dc/dcmitype/StillImage"/>
    <dc:date>2024-06-12T14:07:00.862816</dc:date>
    <dc:format>image/svg+xml</dc:format>
    <dc:creator>
     <cc:Agent>
      <dc:title>Matplotlib v3.9.0, https://matplotlib.org/</dc:title>
     </cc:Agent>
    </dc:creator>
   </cc:Work>
  </rdf:RDF>
 </metadata>
 <defs>
  <style type="text/css">*{stroke-linejoin: round; stroke-linecap: butt}</style>
 </defs>
 <g id="figure_1">
  <g id="patch_1">
   <path d="M 0 360
L 360 360
L 360 0
L 0 0
z
" style="fill: #ffffff"/>
  </g>
  <g id="axes_1">
   <g id="patch_2">
    <path d="M 45 320.4
L 324 320.4
L 324 43.2
L 45 43.2
z
" style="fill: #ffffff"/>
   </g>
   <g id="matplotlib.axis_1">
    <g id="xtick_1">
     <g id="line2d_1">
      <path d="M 70.337126 320.4
L 70.337126 43.2
" clip-path="url(#pc88a09bf1c)" style="fill: none; stroke: #cccccc; stroke-width: 0.8; stroke-linecap: round"/>
     </g>
     <g id="text_1">
      <!-- 5 -->
      <g style="fill: #262626" transform="translate(67.556658 334.557813) scale(0.1 -0.1)">
       <defs>
        <path id="ArialMT-35" d="M 266 1200
L 856 1250
Q 922 819 1161 601
Q 1400 384 1738 384
Q 2144 384 2425 690
Q 2706 997 2706 1503
Q 2706 1984 2436 2262
Q 2166 2541 1728 2541
Q 1456 2541 1237 2417
Q 1019 2294 894 2097
L 366 2166
L 809 4519
L 3088 4519
L 3088 3981
L 1259 3981
L 1013 2750
Q 1425 3038 1878 3038
Q 2478 3038 2890 2622
Q 3303 2206 3303 1553
Q 3303 931 2941 478
Q 2500 -78 1738 -78
Q 1113 -78 717 272
Q 322 622 266 1200
z
" transform="scale(0.015625)"/>
       </defs>
       <use xlink:href="#ArialMT-35"/>
      </g>
     </g>
    </g>
    <g id="xtick_2">
     <g id="line2d_2">
      <path d="M 108.711538 320.4
L 108.711538 43.2
" clip-path="url(#pc88a09bf1c)" style="fill: none; stroke: #cccccc; stroke-width: 0.8; stroke-linecap: round"/>
     </g>
     <g id="text_2">
      <!-- 10 -->
      <g style="fill: #262626" transform="translate(103.150601 334.557813) scale(0.1 -0.1)">
       <defs>
        <path id="ArialMT-31" d="M 2384 0
L 1822 0
L 1822 3584
Q 1619 3391 1289 3197
Q 959 3003 697 2906
L 697 3450
Q 1169 3672 1522 3987
Q 1875 4303 2022 4600
L 2384 4600
L 2384 0
z
" transform="scale(0.015625)"/>
        <path id="ArialMT-30" d="M 266 2259
Q 266 3072 433 3567
Q 600 4063 929 4331
Q 1259 4600 1759 4600
Q 2128 4600 2406 4451
Q 2684 4303 2865 4023
Q 3047 3744 3150 3342
Q 3253 2941 3253 2259
Q 3253 1453 3087 958
Q 2922 463 2592 192
Q 2263 -78 1759 -78
Q 1097 -78 719 397
Q 266 969 266 2259
z
M 844 2259
Q 844 1131 1108 757
Q 1372 384 1759 384
Q 2147 384 2411 759
Q 2675 1134 2675 2259
Q 2675 3391 2411 3762
Q 2147 4134 1753 4134
Q 1366 4134 1134 3806
Q 844 3388 844 2259
z
" transform="scale(0.015625)"/>
       </defs>
       <use xlink:href="#ArialMT-31"/>
       <use xlink:href="#ArialMT-30" x="55.615234"/>
      </g>
     </g>
    </g>
    <g id="xtick_3">
     <g id="line2d_3">
      <path d="M 147.08595 320.4
L 147.08595 43.2
" clip-path="url(#pc88a09bf1c)" style="fill: none; stroke: #cccccc; stroke-width: 0.8; stroke-linecap: round"/>
     </g>
     <g id="text_3">
      <!-- 15 -->
      <g style="fill: #262626" transform="translate(141.525013 334.557813) scale(0.1 -0.1)">
       <use xlink:href="#ArialMT-31"/>
       <use xlink:href="#ArialMT-35" x="55.615234"/>
      </g>
     </g>
    </g>
    <g id="xtick_4">
     <g id="line2d_4">
      <path d="M 185.460362 320.4
L 185.460362 43.2
" clip-path="url(#pc88a09bf1c)" style="fill: none; stroke: #cccccc; stroke-width: 0.8; stroke-linecap: round"/>
     </g>
     <g id="text_4">
      <!-- 20 -->
      <g style="fill: #262626" transform="translate(179.899425 334.557813) scale(0.1 -0.1)">
       <defs>
        <path id="ArialMT-32" d="M 3222 541
L 3222 0
L 194 0
Q 188 203 259 391
Q 375 700 629 1000
Q 884 1300 1366 1694
Q 2113 2306 2375 2664
Q 2638 3022 2638 3341
Q 2638 3675 2398 3904
Q 2159 4134 1775 4134
Q 1369 4134 1125 3890
Q 881 3647 878 3216
L 300 3275
Q 359 3922 746 4261
Q 1134 4600 1788 4600
Q 2447 4600 2831 4234
Q 3216 3869 3216 3328
Q 3216 3053 3103 2787
Q 2991 2522 2730 2228
Q 2469 1934 1863 1422
Q 1356 997 1212 845
Q 1069 694 975 541
L 3222 541
z
" transform="scale(0.015625)"/>
       </defs>
       <use xlink:href="#ArialMT-32"/>
       <use xlink:href="#ArialMT-30" x="55.615234"/>
      </g>
     </g>
    </g>
    <g id="xtick_5">
     <g id="line2d_5">
      <path d="M 223.834774 320.4
L 223.834774 43.2
" clip-path="url(#pc88a09bf1c)" style="fill: none; stroke: #cccccc; stroke-width: 0.8; stroke-linecap: round"/>
     </g>
     <g id="text_5">
      <!-- 25 -->
      <g style="fill: #262626" transform="translate(218.273837 334.557813) scale(0.1 -0.1)">
       <use xlink:href="#ArialMT-32"/>
       <use xlink:href="#ArialMT-35" x="55.615234"/>
      </g>
     </g>
    </g>
    <g id="xtick_6">
     <g id="line2d_6">
      <path d="M 262.209186 320.4
L 262.209186 43.2
" clip-path="url(#pc88a09bf1c)" style="fill: none; stroke: #cccccc; stroke-width: 0.8; stroke-linecap: round"/>
     </g>
     <g id="text_6">
      <!-- 30 -->
      <g style="fill: #262626" transform="translate(256.648249 334.557813) scale(0.1 -0.1)">
       <defs>
        <path id="ArialMT-33" d="M 269 1209
L 831 1284
Q 928 806 1161 595
Q 1394 384 1728 384
Q 2125 384 2398 659
Q 2672 934 2672 1341
Q 2672 1728 2419 1979
Q 2166 2231 1775 2231
Q 1616 2231 1378 2169
L 1441 2663
Q 1497 2656 1531 2656
Q 1891 2656 2178 2843
Q 2466 3031 2466 3422
Q 2466 3731 2256 3934
Q 2047 4138 1716 4138
Q 1388 4138 1169 3931
Q 950 3725 888 3313
L 325 3413
Q 428 3978 793 4289
Q 1159 4600 1703 4600
Q 2078 4600 2393 4439
Q 2709 4278 2876 4000
Q 3044 3722 3044 3409
Q 3044 3113 2884 2869
Q 2725 2625 2413 2481
Q 2819 2388 3044 2092
Q 3269 1797 3269 1353
Q 3269 753 2831 336
Q 2394 -81 1725 -81
Q 1122 -81 723 278
Q 325 638 269 1209
z
" transform="scale(0.015625)"/>
       </defs>
       <use xlink:href="#ArialMT-33"/>
       <use xlink:href="#ArialMT-30" x="55.615234"/>
      </g>
     </g>
    </g>
    <g id="xtick_7">
     <g id="line2d_7">
      <path d="M 300.583598 320.4
L 300.583598 43.2
" clip-path="url(#pc88a09bf1c)" style="fill: none; stroke: #cccccc; stroke-width: 0.8; stroke-linecap: round"/>
     </g>
     <g id="text_7">
      <!-- 35 -->
      <g style="fill: #262626" transform="translate(295.022661 334.557813) scale(0.1 -0.1)">
       <use xlink:href="#ArialMT-33"/>
       <use xlink:href="#ArialMT-35" x="55.615234"/>
      </g>
     </g>
    </g>
    <g id="xtick_8"/>
    <g id="xtick_9"/>
    <g id="xtick_10"/>
    <g id="xtick_11"/>
    <g id="xtick_12"/>
    <g id="xtick_13"/>
    <g id="xtick_14"/>
    <g id="xtick_15"/>
    <g id="xtick_16"/>
    <g id="xtick_17"/>
    <g id="xtick_18"/>
    <g id="xtick_19"/>
    <g id="xtick_20"/>
    <g id="xtick_21"/>
    <g id="xtick_22"/>
    <g id="xtick_23"/>
    <g id="xtick_24"/>
    <g id="xtick_25"/>
    <g id="xtick_26"/>
    <g id="xtick_27"/>
    <g id="xtick_28"/>
    <g id="xtick_29"/>
    <g id="xtick_30"/>
    <g id="xtick_31"/>
    <g id="xtick_32"/>
    <g id="xtick_33"/>
    <g id="xtick_34"/>
    <g id="xtick_35"/>
   </g>
   <g id="matplotlib.axis_2">
    <g id="ytick_1">
     <g id="line2d_8">
      <path d="M 45 288.605482
L 324 288.605482
" clip-path="url(#pc88a09bf1c)" style="fill: none; stroke: #cccccc; stroke-width: 0.8; stroke-linecap: round"/>
     </g>
     <g id="text_8">
      <!-- 5 -->
      <g style="fill: #262626" transform="translate(32.439062 292.184388) scale(0.1 -0.1)">
       <use xlink:href="#ArialMT-35"/>
      </g>
     </g>
    </g>
    <g id="ytick_2">
     <g id="line2d_9">
      <path d="M 45 248.69266
L 324 248.69266
" clip-path="url(#pc88a09bf1c)" style="fill: none; stroke: #cccccc; stroke-width: 0.8; stroke-linecap: round"/>
     </g>
     <g id="text_9">
      <!-- 10 -->
      <g style="fill: #262626" transform="translate(26.878125 252.271566) scale(0.1 -0.1)">
       <use xlink:href="#ArialMT-31"/>
       <use xlink:href="#ArialMT-30" x="55.615234"/>
      </g>
     </g>
    </g>
    <g id="ytick_3">
     <g id="line2d_10">
      <path d="M 45 208.779838
L 324 208.779838
" clip-path="url(#pc88a09bf1c)" style="fill: none; stroke: #cccccc; stroke-width: 0.8; stroke-linecap: round"/>
     </g>
     <g id="text_10">
      <!-- 15 -->
      <g style="fill: #262626" transform="translate(26.878125 212.358744) scale(0.1 -0.1)">
       <use xlink:href="#ArialMT-31"/>
       <use xlink:href="#ArialMT-35" x="55.615234"/>
      </g>
     </g>
    </g>
    <g id="ytick_4">
     <g id="line2d_11">
      <path d="M 45 168.867016
L 324 168.867016
" clip-path="url(#pc88a09bf1c)" style="fill: none; stroke: #cccccc; stroke-width: 0.8; stroke-linecap: round"/>
     </g>
     <g id="text_11">
      <!-- 20 -->
      <g style="fill: #262626" transform="translate(26.878125 172.445923) scale(0.1 -0.1)">
       <use xlink:href="#ArialMT-32"/>
       <use xlink:href="#ArialMT-30" x="55.615234"/>
      </g>
     </g>
    </g>
    <g id="ytick_5">
     <g id="line2d_12">
      <path d="M 45 128.954194
L 324 128.954194
" clip-path="url(#pc88a09bf1c)" style="fill: none; stroke: #cccccc; stroke-width: 0.8; stroke-linecap: round"/>
     </g>
     <g id="text_12">
      <!-- 25 -->
      <g style="fill: #262626" transform="translate(26.878125 132.533101) scale(0.1 -0.1)">
       <use xlink:href="#ArialMT-32"/>
       <use xlink:href="#ArialMT-35" x="55.615234"/>
      </g>
     </g>
    </g>
    <g id="ytick_6">
     <g id="line2d_13">
      <path d="M 45 89.041373
L 324 89.041373
" clip-path="url(#pc88a09bf1c)" style="fill: none; stroke: #cccccc; stroke-width: 0.8; stroke-linecap: round"/>
     </g>
     <g id="text_13">
      <!-- 30 -->
      <g style="fill: #262626" transform="translate(26.878125 92.620279) scale(0.1 -0.1)">
       <use xlink:href="#ArialMT-33"/>
       <use xlink:href="#ArialMT-30" x="55.615234"/>
      </g>
     </g>
    </g>
    <g id="ytick_7">
     <g id="line2d_14">
      <path d="M 45 49.128551
L 324 49.128551
" clip-path="url(#pc88a09bf1c)" style="fill: none; stroke: #cccccc; stroke-width: 0.8; stroke-linecap: round"/>
     </g>
     <g id="text_14">
      <!-- 35 -->
      <g style="fill: #262626" transform="translate(26.878125 52.707457) scale(0.1 -0.1)">
       <use xlink:href="#ArialMT-33"/>
       <use xlink:href="#ArialMT-35" x="55.615234"/>
      </g>
     </g>
    </g>
    <g id="ytick_8"/>
    <g id="ytick_9"/>
    <g id="ytick_10"/>
    <g id="ytick_11"/>
    <g id="ytick_12"/>
    <g id="ytick_13"/>
    <g id="ytick_14"/>
    <g id="ytick_15"/>
    <g id="ytick_16"/>
    <g id="ytick_17"/>
    <g id="ytick_18"/>
    <g id="ytick_19"/>
    <g id="ytick_20"/>
    <g id="ytick_21"/>
    <g id="ytick_22"/>
    <g id="ytick_23"/>
    <g id="ytick_24"/>
    <g id="ytick_25"/>
    <g id="ytick_26"/>
    <g id="ytick_27"/>
    <g id="ytick_28"/>
    <g id="ytick_29"/>
    <g id="ytick_30"/>
    <g id="ytick_31"/>
    <g id="ytick_32"/>
    <g id="ytick_33"/>
    <g id="ytick_34"/>
   </g>
   <g id="PathCollection_1">
    <defs>
     <path id="m0678144dd0" d="M -4.183133 -5.091864
L -4.183133 -11.915533
C -4.183133 -12.303443 -3.868731 -12.617845 -3.480821 -12.617845
C -3.09291 -12.617845 -2.778508 -12.303443 -2.778508 -11.915533
L -2.778508 -5.109422
L -2.07604 -5.109422
L -2.07604 -6.029607
C -2.07604 -6.219544 -1.999097 -6.401365 -1.862849 -6.533634
C -1.7266 -6.665902 -1.54197 -6.736134 -1.352658 -6.731608
L 7.501319 -6.465197
C 8.736296 -6.428053 9.703615 -5.431159 9.703615 -4.195635
C 9.703615 -2.960111 8.736296 -1.963218 7.501319 -1.926073
L 4.932181 -1.848819
L 5.739685 12.737511
L 7.106307 12.737511
C 7.494217 12.737511 7.808619 13.051912 7.808619 13.439823
C 7.808619 13.827734 7.494217 14.142136 7.106307 14.142136
L -0.595174 14.142136
C -0.983085 14.142136 -1.297487 13.827734 -1.297487 13.439823
C -1.297487 13.051912 -0.983085 12.737511 -0.595174 12.737511
L 0.77137 12.737511
L 1.573255 -1.747686
L -1.35258 -1.659663
C -1.359603 -1.659506 -1.366704 -1.65935 -1.373727 -1.65935
C -1.556016 -1.65935 -1.731516 -1.730284 -1.862771 -1.857637
C -1.999097 -1.989906 -2.075961 -2.171726 -2.075961 -2.361663
L -2.075961 -3.704797
L -2.77843 -3.704797
L -2.77843 3.101236
C -2.77843 3.489147 -3.092832 3.803549 -3.480743 3.803549
C -3.868653 3.803549 -4.183055 3.489147 -4.183055 3.101236
L -4.183055 -3.722354
C -4.496677 -3.79282 -4.731015 -4.07234 -4.731015 -4.407109
C -4.731015 -4.741878 -4.496599 -5.021399 -4.183133 -5.091864
z
M 4.332875 12.737511
L 3.527712 -1.806524
L 2.982328 -1.790137
L 2.178102 12.737511
L 4.332875 12.737511
z
M -0.671336 -3.085435
L 7.45918 -3.330074
C 7.930119 -3.344276 8.299068 -3.724461 8.299068 -4.195635
C 8.299068 -4.666887 7.930119 -5.047072 7.45918 -5.061196
L -0.671336 -5.305835
L -0.671336 -3.085435
z
" style="stroke: #db5f57"/>
    </defs>
    <g clip-path="url(#pc88a09bf1c)">
     <use xlink:href="#m0678144dd0" x="281.312561" y="257.094678" style="fill: #db5f57; stroke: #db5f57"/>
     <use xlink:href="#m0678144dd0" x="311.318182" y="222.527823" style="fill: #db5f57; stroke: #db5f57"/>
     <use xlink:href="#m0678144dd0" x="288.27388" y="198.909921" style="fill: #db5f57; stroke: #db5f57"/>
     <use xlink:href="#m0678144dd0" x="264.808373" y="174.860329" style="fill: #db5f57; stroke: #db5f57"/>
     <use xlink:href="#m0678144dd0" x="241.449583" y="150.920111" style="fill: #db5f57; stroke: #db5f57"/>
     <use xlink:href="#m0678144dd0" x="218.455808" y="127.353993" style="fill: #db5f57; stroke: #db5f57"/>
     <use xlink:href="#m0678144dd0" x="194.991559" y="103.305691" style="fill: #db5f57; stroke: #db5f57"/>
     <use xlink:href="#m0678144dd0" x="171.789384" y="79.525986" style="fill: #db5f57; stroke: #db5f57"/>
     <use xlink:href="#m0678144dd0" x="148.639624" y="55.8" style="fill: #db5f57; stroke: #db5f57"/>
     <use xlink:href="#m0678144dd0" x="267.616615" y="243.02804" style="fill: #db5f57; stroke: #db5f57"/>
     <use xlink:href="#m0678144dd0" x="243.924686" y="219.631606" style="fill: #db5f57; stroke: #db5f57"/>
     <use xlink:href="#m0678144dd0" x="220.460587" y="196.460161" style="fill: #db5f57; stroke: #db5f57"/>
     <use xlink:href="#m0678144dd0" x="196.889156" y="173.182723" style="fill: #db5f57; stroke: #db5f57"/>
     <use xlink:href="#m0678144dd0" x="172.990459" y="149.582101" style="fill: #db5f57; stroke: #db5f57"/>
     <use xlink:href="#m0678144dd0" x="149.628428" y="126.51145" style="fill: #db5f57; stroke: #db5f57"/>
     <use xlink:href="#m0678144dd0" x="126.056996" y="103.234011" style="fill: #db5f57; stroke: #db5f57"/>
     <use xlink:href="#m0678144dd0" x="246.706775" y="287.299784" style="fill: #db5f57; stroke: #db5f57"/>
     <use xlink:href="#m0678144dd0" x="222.806915" y="264.480996" style="fill: #db5f57; stroke: #db5f57"/>
     <use xlink:href="#m0678144dd0" x="198.898036" y="241.653598" style="fill: #db5f57; stroke: #db5f57"/>
     <use xlink:href="#m0678144dd0" x="175.150353" y="218.980105" style="fill: #db5f57; stroke: #db5f57"/>
     <use xlink:href="#m0678144dd0" x="151.189246" y="196.10284" style="fill: #db5f57; stroke: #db5f57"/>
     <use xlink:href="#m0678144dd0" x="127.237157" y="173.234186" style="fill: #db5f57; stroke: #db5f57"/>
     <use xlink:href="#m0678144dd0" x="103.385016" y="150.46096" style="fill: #db5f57; stroke: #db5f57"/>
     <use xlink:href="#m0678144dd0" x="79.846249" y="127.986932" style="fill: #db5f57; stroke: #db5f57"/>
     <use xlink:href="#m0678144dd0" x="202.79611" y="307.8" style="fill: #db5f57; stroke: #db5f57"/>
     <use xlink:href="#m0678144dd0" x="178.653245" y="285.612638" style="fill: #db5f57; stroke: #db5f57"/>
     <use xlink:href="#m0678144dd0" x="154.341202" y="263.2698" style="fill: #db5f57; stroke: #db5f57"/>
     <use xlink:href="#m0678144dd0" x="130.13417" y="241.023469" style="fill: #db5f57; stroke: #db5f57"/>
     <use xlink:href="#m0678144dd0" x="105.959355" y="218.806745" style="fill: #db5f57; stroke: #db5f57"/>
     <use xlink:href="#m0678144dd0" x="81.881892" y="196.679487" style="fill: #db5f57; stroke: #db5f57"/>
     <use xlink:href="#m0678144dd0" x="57.681818" y="174.43955" style="fill: #db5f57; stroke: #db5f57"/>
    </g>
   </g>
   <g id="patch_3">
    <path d="M 45 320.4
L 45 43.2
" style="fill: none; stroke: #cccccc; stroke-width: 0.8; stroke-linejoin: miter; stroke-linecap: square"/>
   </g>
   <g id="patch_4">
    <path d="M 324 320.4
L 324 43.2
" style="fill: none; stroke: #cccccc; stroke-width: 0.8; stroke-linejoin: miter; stroke-linecap: square"/>
   </g>
   <g id="patch_5">
    <path d="M 45 320.4
L 324 320.4
" style="fill: none; stroke: #cccccc; stroke-width: 0.8; stroke-linejoin: miter; stroke-linecap: square"/>
   </g>
   <g id="patch_6">
    <path d="M 45 43.2
L 324 43.2
" style="fill: none; stroke: #cccccc; stroke-width: 0.8; stroke-linejoin: miter; stroke-linecap: square"/>
   </g>
  </g>
 </g>
 <defs>
  <clipPath id="pc88a09bf1c">
   <rect x="45" y="43.2" width="279" height="277.2"/>
  </clipPath>
 </defs>
</svg>
