<?xml version="1.0" encoding="utf-8" standalone="no"?>
<!DOCTYPE svg PUBLIC "-//W3C//DTD SVG 1.1//EN"
  "http://www.w3.org/Graphics/SVG/1.1/DTD/svg11.dtd">
<svg xmlns:xlink="http://www.w3.org/1999/xlink" width="360pt" height="360pt" viewBox="0 0 360 360" xmlns="http://www.w3.org/2000/svg" version="1.1">
 <metadata>
  <rdf:RDF xmlns:dc="http://purl.org/dc/elements/1.1/" xmlns:cc="http://creativecommons.org/ns#" xmlns:rdf="http://www.w3.org/1999/02/22-rdf-syntax-ns#">
   <cc:Work>
    <dc:type rdf:resource="http://purl.org/dc/dcmitype/StillImage"/>
    <dc:date>2025-01-01T23:21:38.012492</dc:date>
    <dc:format>image/svg+xml</dc:format>
    <dc:creator>
     <cc:Agent>
      <dc:title>Matplotlib v3.10.0, https://matplotlib.org/</dc:title>
     </cc:Agent>
    </dc:creator>
   </cc:Work>
  </rdf:RDF>
 </metadata>
 <defs>
  <style type="text/css">*{stroke-linejoin: round; stroke-linecap: butt}</style>
 </defs>
 <g id="figure_1">
  <g id="patch_1">
   <path d="M 0 360 
L 360 360 
L 360 0 
L 0 0 
z
" style="fill: #ffffff"/>
  </g>
  <g id="axes_1">
   <g id="patch_2">
    <path d="M 45 320.4 
L 324 320.4 
L 324 43.2 
L 45 43.2 
z
" style="fill: #ffffff"/>
   </g>
   <g id="matplotlib.axis_1">
    <g id="xtick_1">
     <g id="line2d_1">
      <path d="M 100.978148 320.4 
L 100.978148 43.2 
" clip-path="url(#pbac1724e44)" style="fill: none; stroke: #cccccc; stroke-width: 0.8; stroke-linecap: round"/>
     </g>
     <g id="text_1">
      <!-- 10 -->
      <g style="fill: #262626" transform="translate(95.41721 334.557813) scale(0.1 -0.1)">
       <defs>
        <path id="ArialMT-31" d="M 2384 0 
L 1822 0 
L 1822 3584 
Q 1619 3391 1289 3197 
Q 959 3003 697 2906 
L 697 3450 
Q 1169 3672 1522 3987 
Q 1875 4303 2022 4600 
L 2384 4600 
L 2384 0 
z
" transform="scale(0.015625)"/>
        <path id="ArialMT-30" d="M 266 2259 
Q 266 3072 433 3567 
Q 600 4063 929 4331 
Q 1259 4600 1759 4600 
Q 2128 4600 2406 4451 
Q 2684 4303 2865 4023 
Q 3047 3744 3150 3342 
Q 3253 2941 3253 2259 
Q 3253 1453 3087 958 
Q 2922 463 2592 192 
Q 2263 -78 1759 -78 
Q 1097 -78 719 397 
Q 266 969 266 2259 
z
M 844 2259 
Q 844 1131 1108 757 
Q 1372 384 1759 384 
Q 2147 384 2411 759 
Q 2675 1134 2675 2259 
Q 2675 3391 2411 3762 
Q 2147 4134 1753 4134 
Q 1366 4134 1134 3806 
Q 844 3388 844 2259 
z
" transform="scale(0.015625)"/>
       </defs>
       <use xlink:href="#ArialMT-31"/>
       <use xlink:href="#ArialMT-30" transform="translate(55.615234 0)"/>
      </g>
     </g>
    </g>
    <g id="xtick_2">
     <g id="line2d_2">
      <path d="M 157.024055 320.4 
L 157.024055 43.2 
" clip-path="url(#pbac1724e44)" style="fill: none; stroke: #cccccc; stroke-width: 0.8; stroke-linecap: round"/>
     </g>
     <g id="text_2">
      <!-- 20 -->
      <g style="fill: #262626" transform="translate(151.463118 334.557813) scale(0.1 -0.1)">
       <defs>
        <path id="ArialMT-32" d="M 3222 541 
L 3222 0 
L 194 0 
Q 188 203 259 391 
Q 375 700 629 1000 
Q 884 1300 1366 1694 
Q 2113 2306 2375 2664 
Q 2638 3022 2638 3341 
Q 2638 3675 2398 3904 
Q 2159 4134 1775 4134 
Q 1369 4134 1125 3890 
Q 881 3647 878 3216 
L 300 3275 
Q 359 3922 746 4261 
Q 1134 4600 1788 4600 
Q 2447 4600 2831 4234 
Q 3216 3869 3216 3328 
Q 3216 3053 3103 2787 
Q 2991 2522 2730 2228 
Q 2469 1934 1863 1422 
Q 1356 997 1212 845 
Q 1069 694 975 541 
L 3222 541 
z
" transform="scale(0.015625)"/>
       </defs>
       <use xlink:href="#ArialMT-32"/>
       <use xlink:href="#ArialMT-30" transform="translate(55.615234 0)"/>
      </g>
     </g>
    </g>
    <g id="xtick_3">
     <g id="line2d_3">
      <path d="M 213.069963 320.4 
L 213.069963 43.2 
" clip-path="url(#pbac1724e44)" style="fill: none; stroke: #cccccc; stroke-width: 0.8; stroke-linecap: round"/>
     </g>
     <g id="text_3">
      <!-- 30 -->
      <g style="fill: #262626" transform="translate(207.509025 334.557813) scale(0.1 -0.1)">
       <defs>
        <path id="ArialMT-33" d="M 269 1209 
L 831 1284 
Q 928 806 1161 595 
Q 1394 384 1728 384 
Q 2125 384 2398 659 
Q 2672 934 2672 1341 
Q 2672 1728 2419 1979 
Q 2166 2231 1775 2231 
Q 1616 2231 1378 2169 
L 1441 2663 
Q 1497 2656 1531 2656 
Q 1891 2656 2178 2843 
Q 2466 3031 2466 3422 
Q 2466 3731 2256 3934 
Q 2047 4138 1716 4138 
Q 1388 4138 1169 3931 
Q 950 3725 888 3313 
L 325 3413 
Q 428 3978 793 4289 
Q 1159 4600 1703 4600 
Q 2078 4600 2393 4439 
Q 2709 4278 2876 4000 
Q 3044 3722 3044 3409 
Q 3044 3113 2884 2869 
Q 2725 2625 2413 2481 
Q 2819 2388 3044 2092 
Q 3269 1797 3269 1353 
Q 3269 753 2831 336 
Q 2394 -81 1725 -81 
Q 1122 -81 723 278 
Q 325 638 269 1209 
z
" transform="scale(0.015625)"/>
       </defs>
       <use xlink:href="#ArialMT-33"/>
       <use xlink:href="#ArialMT-30" transform="translate(55.615234 0)"/>
      </g>
     </g>
    </g>
    <g id="xtick_4">
     <g id="line2d_4">
      <path d="M 269.11587 320.4 
L 269.11587 43.2 
" clip-path="url(#pbac1724e44)" style="fill: none; stroke: #cccccc; stroke-width: 0.8; stroke-linecap: round"/>
     </g>
     <g id="text_4">
      <!-- 40 -->
      <g style="fill: #262626" transform="translate(263.554933 334.557813) scale(0.1 -0.1)">
       <defs>
        <path id="ArialMT-34" d="M 2069 0 
L 2069 1097 
L 81 1097 
L 81 1613 
L 2172 4581 
L 2631 4581 
L 2631 1613 
L 3250 1613 
L 3250 1097 
L 2631 1097 
L 2631 0 
L 2069 0 
z
M 2069 1613 
L 2069 3678 
L 634 1613 
L 2069 1613 
z
" transform="scale(0.015625)"/>
       </defs>
       <use xlink:href="#ArialMT-34"/>
       <use xlink:href="#ArialMT-30" transform="translate(55.615234 0)"/>
      </g>
     </g>
    </g>
    <g id="xtick_5"/>
    <g id="xtick_6"/>
    <g id="xtick_7"/>
    <g id="xtick_8"/>
    <g id="xtick_9"/>
    <g id="xtick_10"/>
    <g id="xtick_11"/>
    <g id="xtick_12"/>
    <g id="xtick_13"/>
    <g id="xtick_14"/>
    <g id="xtick_15"/>
    <g id="xtick_16"/>
    <g id="xtick_17"/>
    <g id="xtick_18"/>
    <g id="xtick_19"/>
    <g id="xtick_20"/>
    <g id="xtick_21"/>
    <g id="xtick_22"/>
    <g id="xtick_23"/>
    <g id="xtick_24"/>
    <g id="xtick_25"/>
    <g id="xtick_26"/>
    <g id="xtick_27"/>
    <g id="xtick_28"/>
    <g id="xtick_29"/>
    <g id="xtick_30"/>
    <g id="xtick_31"/>
    <g id="xtick_32"/>
    <g id="xtick_33"/>
    <g id="xtick_34"/>
    <g id="xtick_35"/>
    <g id="xtick_36"/>
    <g id="xtick_37"/>
    <g id="xtick_38"/>
    <g id="xtick_39"/>
    <g id="xtick_40"/>
    <g id="xtick_41"/>
   </g>
   <g id="matplotlib.axis_2">
    <g id="ytick_1">
     <g id="line2d_5">
      <path d="M 45 318.818694 
L 324 318.818694 
" clip-path="url(#pbac1724e44)" style="fill: none; stroke: #cccccc; stroke-width: 0.8; stroke-linecap: round"/>
     </g>
     <g id="text_5">
      <!-- 10 -->
      <g style="fill: #262626" transform="translate(26.878125 322.3976) scale(0.1 -0.1)">
       <use xlink:href="#ArialMT-31"/>
       <use xlink:href="#ArialMT-30" transform="translate(55.615234 0)"/>
      </g>
     </g>
    </g>
    <g id="ytick_2">
     <g id="line2d_6">
      <path d="M 45 287.376949 
L 324 287.376949 
" clip-path="url(#pbac1724e44)" style="fill: none; stroke: #cccccc; stroke-width: 0.8; stroke-linecap: round"/>
     </g>
     <g id="text_6">
      <!-- 20 -->
      <g style="fill: #262626" transform="translate(26.878125 290.955856) scale(0.1 -0.1)">
       <use xlink:href="#ArialMT-32"/>
       <use xlink:href="#ArialMT-30" transform="translate(55.615234 0)"/>
      </g>
     </g>
    </g>
    <g id="ytick_3">
     <g id="line2d_7">
      <path d="M 45 255.935205 
L 324 255.935205 
" clip-path="url(#pbac1724e44)" style="fill: none; stroke: #cccccc; stroke-width: 0.8; stroke-linecap: round"/>
     </g>
     <g id="text_7">
      <!-- 30 -->
      <g style="fill: #262626" transform="translate(26.878125 259.514111) scale(0.1 -0.1)">
       <use xlink:href="#ArialMT-33"/>
       <use xlink:href="#ArialMT-30" transform="translate(55.615234 0)"/>
      </g>
     </g>
    </g>
    <g id="ytick_4">
     <g id="line2d_8">
      <path d="M 45 224.49346 
L 324 224.49346 
" clip-path="url(#pbac1724e44)" style="fill: none; stroke: #cccccc; stroke-width: 0.8; stroke-linecap: round"/>
     </g>
     <g id="text_8">
      <!-- 40 -->
      <g style="fill: #262626" transform="translate(26.878125 228.072367) scale(0.1 -0.1)">
       <use xlink:href="#ArialMT-34"/>
       <use xlink:href="#ArialMT-30" transform="translate(55.615234 0)"/>
      </g>
     </g>
    </g>
    <g id="ytick_5">
     <g id="line2d_9">
      <path d="M 45 193.051716 
L 324 193.051716 
" clip-path="url(#pbac1724e44)" style="fill: none; stroke: #cccccc; stroke-width: 0.8; stroke-linecap: round"/>
     </g>
     <g id="text_9">
      <!-- 50 -->
      <g style="fill: #262626" transform="translate(26.878125 196.630622) scale(0.1 -0.1)">
       <defs>
        <path id="ArialMT-35" d="M 266 1200 
L 856 1250 
Q 922 819 1161 601 
Q 1400 384 1738 384 
Q 2144 384 2425 690 
Q 2706 997 2706 1503 
Q 2706 1984 2436 2262 
Q 2166 2541 1728 2541 
Q 1456 2541 1237 2417 
Q 1019 2294 894 2097 
L 366 2166 
L 809 4519 
L 3088 4519 
L 3088 3981 
L 1259 3981 
L 1013 2750 
Q 1425 3038 1878 3038 
Q 2478 3038 2890 2622 
Q 3303 2206 3303 1553 
Q 3303 931 2941 478 
Q 2500 -78 1738 -78 
Q 1113 -78 717 272 
Q 322 622 266 1200 
z
" transform="scale(0.015625)"/>
       </defs>
       <use xlink:href="#ArialMT-35"/>
       <use xlink:href="#ArialMT-30" transform="translate(55.615234 0)"/>
      </g>
     </g>
    </g>
    <g id="ytick_6">
     <g id="line2d_10">
      <path d="M 45 161.609971 
L 324 161.609971 
" clip-path="url(#pbac1724e44)" style="fill: none; stroke: #cccccc; stroke-width: 0.8; stroke-linecap: round"/>
     </g>
     <g id="text_10">
      <!-- 60 -->
      <g style="fill: #262626" transform="translate(26.878125 165.188878) scale(0.1 -0.1)">
       <defs>
        <path id="ArialMT-36" d="M 3184 3459 
L 2625 3416 
Q 2550 3747 2413 3897 
Q 2184 4138 1850 4138 
Q 1581 4138 1378 3988 
Q 1113 3794 959 3422 
Q 806 3050 800 2363 
Q 1003 2672 1297 2822 
Q 1591 2972 1913 2972 
Q 2475 2972 2870 2558 
Q 3266 2144 3266 1488 
Q 3266 1056 3080 686 
Q 2894 316 2569 119 
Q 2244 -78 1831 -78 
Q 1128 -78 684 439 
Q 241 956 241 2144 
Q 241 3472 731 4075 
Q 1159 4600 1884 4600 
Q 2425 4600 2770 4297 
Q 3116 3994 3184 3459 
z
M 888 1484 
Q 888 1194 1011 928 
Q 1134 663 1356 523 
Q 1578 384 1822 384 
Q 2178 384 2434 671 
Q 2691 959 2691 1453 
Q 2691 1928 2437 2201 
Q 2184 2475 1800 2475 
Q 1419 2475 1153 2201 
Q 888 1928 888 1484 
z
" transform="scale(0.015625)"/>
       </defs>
       <use xlink:href="#ArialMT-36"/>
       <use xlink:href="#ArialMT-30" transform="translate(55.615234 0)"/>
      </g>
     </g>
    </g>
    <g id="ytick_7">
     <g id="line2d_11">
      <path d="M 45 130.168227 
L 324 130.168227 
" clip-path="url(#pbac1724e44)" style="fill: none; stroke: #cccccc; stroke-width: 0.8; stroke-linecap: round"/>
     </g>
     <g id="text_11">
      <!-- 70 -->
      <g style="fill: #262626" transform="translate(26.878125 133.747133) scale(0.1 -0.1)">
       <defs>
        <path id="ArialMT-37" d="M 303 3981 
L 303 4522 
L 3269 4522 
L 3269 4084 
Q 2831 3619 2401 2847 
Q 1972 2075 1738 1259 
Q 1569 684 1522 0 
L 944 0 
Q 953 541 1156 1306 
Q 1359 2072 1739 2783 
Q 2119 3494 2547 3981 
L 303 3981 
z
" transform="scale(0.015625)"/>
       </defs>
       <use xlink:href="#ArialMT-37"/>
       <use xlink:href="#ArialMT-30" transform="translate(55.615234 0)"/>
      </g>
     </g>
    </g>
    <g id="ytick_8">
     <g id="line2d_12">
      <path d="M 45 98.726482 
L 324 98.726482 
" clip-path="url(#pbac1724e44)" style="fill: none; stroke: #cccccc; stroke-width: 0.8; stroke-linecap: round"/>
     </g>
     <g id="text_12">
      <!-- 80 -->
      <g style="fill: #262626" transform="translate(26.878125 102.305389) scale(0.1 -0.1)">
       <defs>
        <path id="ArialMT-38" d="M 1131 2484 
Q 781 2613 612 2850 
Q 444 3088 444 3419 
Q 444 3919 803 4259 
Q 1163 4600 1759 4600 
Q 2359 4600 2725 4251 
Q 3091 3903 3091 3403 
Q 3091 3084 2923 2848 
Q 2756 2613 2416 2484 
Q 2838 2347 3058 2040 
Q 3278 1734 3278 1309 
Q 3278 722 2862 322 
Q 2447 -78 1769 -78 
Q 1091 -78 675 323 
Q 259 725 259 1325 
Q 259 1772 486 2073 
Q 713 2375 1131 2484 
z
M 1019 3438 
Q 1019 3113 1228 2906 
Q 1438 2700 1772 2700 
Q 2097 2700 2305 2904 
Q 2513 3109 2513 3406 
Q 2513 3716 2298 3927 
Q 2084 4138 1766 4138 
Q 1444 4138 1231 3931 
Q 1019 3725 1019 3438 
z
M 838 1322 
Q 838 1081 952 856 
Q 1066 631 1291 507 
Q 1516 384 1775 384 
Q 2178 384 2440 643 
Q 2703 903 2703 1303 
Q 2703 1709 2433 1975 
Q 2163 2241 1756 2241 
Q 1359 2241 1098 1978 
Q 838 1716 838 1322 
z
" transform="scale(0.015625)"/>
       </defs>
       <use xlink:href="#ArialMT-38"/>
       <use xlink:href="#ArialMT-30" transform="translate(55.615234 0)"/>
      </g>
     </g>
    </g>
    <g id="ytick_9">
     <g id="line2d_13">
      <path d="M 45 67.284738 
L 324 67.284738 
" clip-path="url(#pbac1724e44)" style="fill: none; stroke: #cccccc; stroke-width: 0.8; stroke-linecap: round"/>
     </g>
     <g id="text_13">
      <!-- 90 -->
      <g style="fill: #262626" transform="translate(26.878125 70.863644) scale(0.1 -0.1)">
       <defs>
        <path id="ArialMT-39" d="M 350 1059 
L 891 1109 
Q 959 728 1153 556 
Q 1347 384 1650 384 
Q 1909 384 2104 503 
Q 2300 622 2425 820 
Q 2550 1019 2634 1356 
Q 2719 1694 2719 2044 
Q 2719 2081 2716 2156 
Q 2547 1888 2255 1720 
Q 1963 1553 1622 1553 
Q 1053 1553 659 1965 
Q 266 2378 266 3053 
Q 266 3750 677 4175 
Q 1088 4600 1706 4600 
Q 2153 4600 2523 4359 
Q 2894 4119 3086 3673 
Q 3278 3228 3278 2384 
Q 3278 1506 3087 986 
Q 2897 466 2520 194 
Q 2144 -78 1638 -78 
Q 1100 -78 759 220 
Q 419 519 350 1059 
z
M 2653 3081 
Q 2653 3566 2395 3850 
Q 2138 4134 1775 4134 
Q 1400 4134 1122 3828 
Q 844 3522 844 3034 
Q 844 2597 1108 2323 
Q 1372 2050 1759 2050 
Q 2150 2050 2401 2323 
Q 2653 2597 2653 3081 
z
" transform="scale(0.015625)"/>
       </defs>
       <use xlink:href="#ArialMT-39"/>
       <use xlink:href="#ArialMT-30" transform="translate(55.615234 0)"/>
      </g>
     </g>
    </g>
    <g id="ytick_10"/>
    <g id="ytick_11"/>
    <g id="ytick_12"/>
    <g id="ytick_13"/>
    <g id="ytick_14"/>
    <g id="ytick_15"/>
    <g id="ytick_16"/>
    <g id="ytick_17"/>
    <g id="ytick_18"/>
    <g id="ytick_19"/>
    <g id="ytick_20"/>
    <g id="ytick_21"/>
    <g id="ytick_22"/>
    <g id="ytick_23"/>
    <g id="ytick_24"/>
    <g id="ytick_25"/>
    <g id="ytick_26"/>
    <g id="ytick_27"/>
    <g id="ytick_28"/>
    <g id="ytick_29"/>
    <g id="ytick_30"/>
    <g id="ytick_31"/>
    <g id="ytick_32"/>
    <g id="ytick_33"/>
    <g id="ytick_34"/>
    <g id="ytick_35"/>
    <g id="ytick_36"/>
    <g id="ytick_37"/>
    <g id="ytick_38"/>
    <g id="ytick_39"/>
    <g id="ytick_40"/>
    <g id="ytick_41"/>
    <g id="ytick_42"/>
    <g id="ytick_43"/>
    <g id="ytick_44"/>
    <g id="ytick_45"/>
    <g id="ytick_46"/>
    <g id="ytick_47"/>
    <g id="ytick_48"/>
    <g id="ytick_49"/>
    <g id="ytick_50"/>
    <g id="ytick_51"/>
    <g id="ytick_52"/>
    <g id="ytick_53"/>
    <g id="ytick_54"/>
    <g id="ytick_55"/>
    <g id="ytick_56"/>
    <g id="ytick_57"/>
    <g id="ytick_58"/>
    <g id="ytick_59"/>
    <g id="ytick_60"/>
    <g id="ytick_61"/>
    <g id="ytick_62"/>
    <g id="ytick_63"/>
    <g id="ytick_64"/>
    <g id="ytick_65"/>
    <g id="ytick_66"/>
    <g id="ytick_67"/>
    <g id="ytick_68"/>
    <g id="ytick_69"/>
    <g id="ytick_70"/>
    <g id="ytick_71"/>
    <g id="ytick_72"/>
    <g id="ytick_73"/>
    <g id="ytick_74"/>
    <g id="ytick_75"/>
    <g id="ytick_76"/>
    <g id="ytick_77"/>
    <g id="ytick_78"/>
    <g id="ytick_79"/>
    <g id="ytick_80"/>
    <g id="ytick_81"/>
    <g id="ytick_82"/>
    <g id="ytick_83"/>
    <g id="ytick_84"/>
    <g id="ytick_85"/>
    <g id="ytick_86"/>
    <g id="ytick_87"/>
    <g id="ytick_88"/>
   </g>
   <g id="PathCollection_1">
    <defs>
     <path id="m077fae94c2" d="M 0.757364 -8.537651 
L 0.757364 -8.537651 
C 0.757363 -10.466022 0.647929 -12.317386 0.453342 -13.680952 
C 0.258756 -15.044518 -0.005442 -15.811381 -0.28063 -15.811386 
L -0.28063 -15.811386 
C -0.416938 -15.811388 -0.551922 -15.623241 -0.677854 -15.257711 
C -0.803787 -14.892181 -0.918221 -14.356378 -1.014605 -13.680965 
C -1.11099 -13.005551 -1.187452 -12.203664 -1.239615 -11.321193 
C -1.291779 -10.438722 -1.318628 -9.49283 -1.318629 -8.537651 
L -1.318629 -8.537651 
C -1.318629 -7.582471 -1.291779 -6.636578 -1.239616 -5.754107 
C -1.187453 -4.871636 -1.110991 -4.069747 -1.014606 -3.394334 
C -0.918221 -2.71892 -0.803787 -2.183116 -0.677855 -1.817586 
C -0.551922 -1.452056 -0.416939 -1.263908 -0.28063 -1.26391 
L -0.28063 -1.26391 
C -0.005442 -1.263915 0.258756 -2.030779 0.453343 -3.394346 
C 0.647929 -4.757914 0.757364 -6.609278 0.757364 -8.537651 
z
M -0.324928 -1.043728 
L -2.635056 0.014246 
L -0.324928 1.072236 
L -0.324928 -1.043728 
z
M 0.99417 2.039588 
L 3.612644 2.039588 
C 4.185259 2.039588 4.646249 1.578603 4.646249 1.005982 
L 4.646249 -0.923414 
C 4.646249 -1.496035 4.185259 -1.95702 3.612644 -1.95702 
L 0.99417 -1.95702 
C 0.421555 -1.95702 -0.039435 -1.496035 -0.039435 -0.923414 
L -0.039435 1.005982 
C -0.039435 1.578603 0.421555 2.039588 0.99417 2.039588 
z
M 0.762886 8.473484 
L 0.762886 8.473484 
C 0.762886 6.545111 0.653452 4.693747 0.458865 3.330179 
C 0.264278 1.966612 0.00008 1.199748 -0.275107 1.199743 
L -0.275107 1.199743 
C -0.411416 1.199741 -0.546399 1.387889 -0.672332 1.753419 
C -0.798265 2.118949 -0.912698 2.654753 -1.009083 3.330167 
C -1.105468 4.00558 -1.18193 4.807469 -1.234093 5.68994 
C -1.286256 6.572411 -1.313106 7.518303 -1.313106 8.473484 
L -1.313106 8.473484 
C -1.313106 9.428663 -1.286256 10.374555 -1.234093 11.257026 
C -1.18193 12.139497 -1.105468 12.941384 -1.009083 13.616797 
C -0.912698 14.292211 -0.798265 14.828014 -0.672332 15.193544 
C -0.546399 15.559074 -0.411416 15.747221 -0.275107 15.747219 
L -0.275107 15.747219 
C 0.00008 15.747214 0.264278 14.980351 0.458865 13.616785 
C 0.653452 12.253218 0.762886 10.401855 0.762886 8.473484 
z
" style="stroke: #db5f57"/>
    </defs>
    <g clip-path="url(#pbac1724e44)">
     <use xlink:href="#m077fae94c2" x="204.471367" y="300.593136" style="fill: #db5f57; stroke: #db5f57"/>
     <use xlink:href="#m077fae94c2" x="180.077769" y="301.714204" style="fill: #db5f57; stroke: #db5f57"/>
     <use xlink:href="#m077fae94c2" x="156.254781" y="302.915348" style="fill: #db5f57; stroke: #db5f57"/>
     <use xlink:href="#m077fae94c2" x="132.003835" y="304.356721" style="fill: #db5f57; stroke: #db5f57"/>
     <use xlink:href="#m077fae94c2" x="108.180847" y="305.477788" style="fill: #db5f57; stroke: #db5f57"/>
     <use xlink:href="#m077fae94c2" x="83.787248" y="306.598856" style="fill: #db5f57; stroke: #db5f57"/>
     <use xlink:href="#m077fae94c2" x="60.106913" y="307.8" style="fill: #db5f57; stroke: #db5f57"/>
     <use xlink:href="#m077fae94c2" x="202.759536" y="283.697045" style="fill: #db5f57; stroke: #db5f57"/>
     <use xlink:href="#m077fae94c2" x="178.50859" y="283.937274" style="fill: #db5f57; stroke: #db5f57"/>
     <use xlink:href="#m077fae94c2" x="154.257644" y="284.177502" style="fill: #db5f57; stroke: #db5f57"/>
     <use xlink:href="#m077fae94c2" x="130.434656" y="284.818112" style="fill: #db5f57; stroke: #db5f57"/>
     <use xlink:href="#m077fae94c2" x="106.326363" y="284.978265" style="fill: #db5f57; stroke: #db5f57"/>
     <use xlink:href="#m077fae94c2" x="81.932764" y="285.058341" style="fill: #db5f57; stroke: #db5f57"/>
     <use xlink:href="#m077fae94c2" x="57.681818" y="285.378646" style="fill: #db5f57; stroke: #db5f57"/>
     <use xlink:href="#m077fae94c2" x="202.902188" y="266.000191" style="fill: #db5f57; stroke: #db5f57"/>
     <use xlink:href="#m077fae94c2" x="179.364506" y="265.840038" style="fill: #db5f57; stroke: #db5f57"/>
     <use xlink:href="#m077fae94c2" x="154.970907" y="265.119352" style="fill: #db5f57; stroke: #db5f57"/>
     <use xlink:href="#m077fae94c2" x="130.719961" y="264.398665" style="fill: #db5f57; stroke: #db5f57"/>
     <use xlink:href="#m077fae94c2" x="106.469015" y="263.998284" style="fill: #db5f57; stroke: #db5f57"/>
     <use xlink:href="#m077fae94c2" x="82.218069" y="263.197521" style="fill: #db5f57; stroke: #db5f57"/>
     <use xlink:href="#m077fae94c2" x="57.967123" y="263.117445" style="fill: #db5f57; stroke: #db5f57"/>
     <use xlink:href="#m077fae94c2" x="205.469936" y="249.024023" style="fill: #db5f57; stroke: #db5f57"/>
     <use xlink:href="#m077fae94c2" x="181.21899" y="247.822879" style="fill: #db5f57; stroke: #db5f57"/>
     <use xlink:href="#m077fae94c2" x="157.538654" y="246.141277" style="fill: #db5f57; stroke: #db5f57"/>
     <use xlink:href="#m077fae94c2" x="133.287708" y="244.459676" style="fill: #db5f57; stroke: #db5f57"/>
     <use xlink:href="#m077fae94c2" x="109.179415" y="243.258532" style="fill: #db5f57; stroke: #db5f57"/>
     <use xlink:href="#m077fae94c2" x="85.356427" y="241.57693" style="fill: #db5f57; stroke: #db5f57"/>
     <use xlink:href="#m077fae94c2" x="61.105481" y="240.375786" style="fill: #db5f57; stroke: #db5f57"/>
     <use xlink:href="#m077fae94c2" x="209.892167" y="231.967779" style="fill: #db5f57; stroke: #db5f57"/>
     <use xlink:href="#m077fae94c2" x="185.641221" y="229.325262" style="fill: #db5f57; stroke: #db5f57"/>
     <use xlink:href="#m077fae94c2" x="161.818233" y="227.163203" style="fill: #db5f57; stroke: #db5f57"/>
     <use xlink:href="#m077fae94c2" x="138.423203" y="225.08122" style="fill: #db5f57; stroke: #db5f57"/>
     <use xlink:href="#m077fae94c2" x="114.457562" y="222.358627" style="fill: #db5f57; stroke: #db5f57"/>
     <use xlink:href="#m077fae94c2" x="90.206616" y="220.196568" style="fill: #db5f57; stroke: #db5f57"/>
     <use xlink:href="#m077fae94c2" x="66.668933" y="217.714204" style="fill: #db5f57; stroke: #db5f57"/>
     <use xlink:href="#m077fae94c2" x="216.168882" y="214.831458" style="fill: #db5f57; stroke: #db5f57"/>
     <use xlink:href="#m077fae94c2" x="192.203242" y="211.708484" style="fill: #db5f57; stroke: #db5f57"/>
     <use xlink:href="#m077fae94c2" x="168.522906" y="208.665586" style="fill: #db5f57; stroke: #db5f57"/>
     <use xlink:href="#m077fae94c2" x="144.985223" y="205.302383" style="fill: #db5f57; stroke: #db5f57"/>
     <use xlink:href="#m077fae94c2" x="121.447541" y="202.179409" style="fill: #db5f57; stroke: #db5f57"/>
     <use xlink:href="#m077fae94c2" x="97.909858" y="199.136511" style="fill: #db5f57; stroke: #db5f57"/>
     <use xlink:href="#m077fae94c2" x="74.800133" y="196.093613" style="fill: #db5f57; stroke: #db5f57"/>
     <use xlink:href="#m077fae94c2" x="223.729471" y="198.335748" style="fill: #db5f57; stroke: #db5f57"/>
     <use xlink:href="#m077fae94c2" x="200.477094" y="194.412011" style="fill: #db5f57; stroke: #db5f57"/>
     <use xlink:href="#m077fae94c2" x="177.367369" y="190.248046" style="fill: #db5f57; stroke: #db5f57"/>
     <use xlink:href="#m077fae94c2" x="154.114991" y="186.004004" style="fill: #db5f57; stroke: #db5f57"/>
     <use xlink:href="#m077fae94c2" x="131.147919" y="182.000191" style="fill: #db5f57; stroke: #db5f57"/>
     <use xlink:href="#m077fae94c2" x="108.466152" y="177.916301" style="fill: #db5f57; stroke: #db5f57"/>
     <use xlink:href="#m077fae94c2" x="85.213774" y="173.992564" style="fill: #db5f57; stroke: #db5f57"/>
     <use xlink:href="#m077fae94c2" x="233.572502" y="181.679886" style="fill: #db5f57; stroke: #db5f57"/>
     <use xlink:href="#m077fae94c2" x="210.890735" y="176.955386" style="fill: #db5f57; stroke: #db5f57"/>
     <use xlink:href="#m077fae94c2" x="188.922231" y="172.070734" style="fill: #db5f57; stroke: #db5f57"/>
     <use xlink:href="#m077fae94c2" x="166.240464" y="167.666539" style="fill: #db5f57; stroke: #db5f57"/>
     <use xlink:href="#m077fae94c2" x="143.416045" y="162.621735" style="fill: #db5f57; stroke: #db5f57"/>
     <use xlink:href="#m077fae94c2" x="120.734278" y="157.897235" style="fill: #db5f57; stroke: #db5f57"/>
     <use xlink:href="#m077fae94c2" x="98.195163" y="152.932507" style="fill: #db5f57; stroke: #db5f57"/>
     <use xlink:href="#m077fae94c2" x="245.697975" y="165.824785" style="fill: #db5f57; stroke: #db5f57"/>
     <use xlink:href="#m077fae94c2" x="223.444166" y="160.3796" style="fill: #db5f57; stroke: #db5f57"/>
     <use xlink:href="#m077fae94c2" x="201.333009" y="154.694185" style="fill: #db5f57; stroke: #db5f57"/>
     <use xlink:href="#m077fae94c2" x="179.649811" y="148.768541" style="fill: #db5f57; stroke: #db5f57"/>
     <use xlink:href="#m077fae94c2" x="157.681307" y="143.483508" style="fill: #db5f57; stroke: #db5f57"/>
     <use xlink:href="#m077fae94c2" x="135.57015" y="137.637941" style="fill: #db5f57; stroke: #db5f57"/>
     <use xlink:href="#m077fae94c2" x="113.886952" y="131.87245" style="fill: #db5f57; stroke: #db5f57"/>
     <use xlink:href="#m077fae94c2" x="259.53528" y="150.770448" style="fill: #db5f57; stroke: #db5f57"/>
     <use xlink:href="#m077fae94c2" x="237.994734" y="143.883889" style="fill: #db5f57; stroke: #db5f57"/>
     <use xlink:href="#m077fae94c2" x="216.454188" y="137.637941" style="fill: #db5f57; stroke: #db5f57"/>
     <use xlink:href="#m077fae94c2" x="195.198947" y="130.991611" style="fill: #db5f57; stroke: #db5f57"/>
     <use xlink:href="#m077fae94c2" x="174.086359" y="124.825739" style="fill: #db5f57; stroke: #db5f57"/>
     <use xlink:href="#m077fae94c2" x="153.116423" y="118.820019" style="fill: #db5f57; stroke: #db5f57"/>
     <use xlink:href="#m077fae94c2" x="131.861182" y="111.93346" style="fill: #db5f57; stroke: #db5f57"/>
     <use xlink:href="#m077fae94c2" x="274.941763" y="135.716111" style="fill: #db5f57; stroke: #db5f57"/>
     <use xlink:href="#m077fae94c2" x="254.11448" y="128.429171" style="fill: #db5f57; stroke: #db5f57"/>
     <use xlink:href="#m077fae94c2" x="234.143113" y="121.462536" style="fill: #db5f57; stroke: #db5f57"/>
     <use xlink:href="#m077fae94c2" x="213.458482" y="114.415825" style="fill: #db5f57; stroke: #db5f57"/>
     <use xlink:href="#m077fae94c2" x="193.20181" y="107.128885" style="fill: #db5f57; stroke: #db5f57"/>
     <use xlink:href="#m077fae94c2" x="172.51718" y="100.002097" style="fill: #db5f57; stroke: #db5f57"/>
     <use xlink:href="#m077fae94c2" x="151.832549" y="92.87531" style="fill: #db5f57; stroke: #db5f57"/>
     <use xlink:href="#m077fae94c2" x="292.345383" y="121.142231" style="fill: #db5f57; stroke: #db5f57"/>
     <use xlink:href="#m077fae94c2" x="272.659321" y="113.615062" style="fill: #db5f57; stroke: #db5f57"/>
     <use xlink:href="#m077fae94c2" x="252.830606" y="105.607436" style="fill: #db5f57; stroke: #db5f57"/>
     <use xlink:href="#m077fae94c2" x="233.144544" y="97.439657" style="fill: #db5f57; stroke: #db5f57"/>
     <use xlink:href="#m077fae94c2" x="213.88644" y="89.832412" style="fill: #db5f57; stroke: #db5f57"/>
     <use xlink:href="#m077fae94c2" x="194.200378" y="81.664633" style="fill: #db5f57; stroke: #db5f57"/>
     <use xlink:href="#m077fae94c2" x="174.371664" y="73.657007" style="fill: #db5f57; stroke: #db5f57"/>
     <use xlink:href="#m077fae94c2" x="311.318182" y="107.689418" style="fill: #db5f57; stroke: #db5f57"/>
     <use xlink:href="#m077fae94c2" x="292.488036" y="99.121258" style="fill: #db5f57; stroke: #db5f57"/>
     <use xlink:href="#m077fae94c2" x="273.515237" y="90.553098" style="fill: #db5f57; stroke: #db5f57"/>
     <use xlink:href="#m077fae94c2" x="255.113048" y="81.984938" style="fill: #db5f57; stroke: #db5f57"/>
     <use xlink:href="#m077fae94c2" x="236.425555" y="73.416778" style="fill: #db5f57; stroke: #db5f57"/>
     <use xlink:href="#m077fae94c2" x="217.595409" y="64.448236" style="fill: #db5f57; stroke: #db5f57"/>
     <use xlink:href="#m077fae94c2" x="198.62261" y="55.8" style="fill: #db5f57; stroke: #db5f57"/>
    </g>
   </g>
   <g id="patch_3">
    <path d="M 45 320.4 
L 45 43.2 
" style="fill: none; stroke: #cccccc; stroke-width: 0.8; stroke-linejoin: miter; stroke-linecap: square"/>
   </g>
   <g id="patch_4">
    <path d="M 324 320.4 
L 324 43.2 
" style="fill: none; stroke: #cccccc; stroke-width: 0.8; stroke-linejoin: miter; stroke-linecap: square"/>
   </g>
   <g id="patch_5">
    <path d="M 45 320.4 
L 324 320.4 
" style="fill: none; stroke: #cccccc; stroke-width: 0.8; stroke-linejoin: miter; stroke-linecap: square"/>
   </g>
   <g id="patch_6">
    <path d="M 45 43.2 
L 324 43.2 
" style="fill: none; stroke: #cccccc; stroke-width: 0.8; stroke-linejoin: miter; stroke-linecap: square"/>
   </g>
  </g>
 </g>
 <defs>
  <clipPath id="pbac1724e44">
   <rect x="45" y="43.2" width="279" height="277.2"/>
  </clipPath>
 </defs>
</svg>
