<?xml version="1.0" encoding="utf-8" standalone="no"?>
<!DOCTYPE svg PUBLIC "-//W3C//DTD SVG 1.1//EN"
  "http://www.w3.org/Graphics/SVG/1.1/DTD/svg11.dtd">
<svg xmlns:xlink="http://www.w3.org/1999/xlink" width="360pt" height="360pt" viewBox="0 0 360 360" xmlns="http://www.w3.org/2000/svg" version="1.1">
 <metadata>
  <rdf:RDF xmlns:dc="http://purl.org/dc/elements/1.1/" xmlns:cc="http://creativecommons.org/ns#" xmlns:rdf="http://www.w3.org/1999/02/22-rdf-syntax-ns#">
   <cc:Work>
    <dc:type rdf:resource="http://purl.org/dc/dcmitype/StillImage"/>
    <dc:date>2025-01-01T23:21:38.139277</dc:date>
    <dc:format>image/svg+xml</dc:format>
    <dc:creator>
     <cc:Agent>
      <dc:title>Matplotlib v3.10.0, https://matplotlib.org/</dc:title>
     </cc:Agent>
    </dc:creator>
   </cc:Work>
  </rdf:RDF>
 </metadata>
 <defs>
  <style type="text/css">*{stroke-linejoin: round; stroke-linecap: butt}</style>
 </defs>
 <g id="figure_1">
  <g id="patch_1">
   <path d="M 0 360 
L 360 360 
L 360 0 
L 0 0 
z
" style="fill: #ffffff"/>
  </g>
  <g id="axes_1">
   <g id="patch_2">
    <path d="M 45 320.4 
L 324 320.4 
L 324 43.2 
L 45 43.2 
z
" style="fill: #ffffff"/>
   </g>
   <g id="matplotlib.axis_1">
    <g id="xtick_1">
     <g id="line2d_1">
      <path d="M 70.337126 320.4 
L 70.337126 43.2 
" clip-path="url(#pbcb08c3901)" style="fill: none; stroke: #cccccc; stroke-width: 0.8; stroke-linecap: round"/>
     </g>
     <g id="text_1">
      <!-- 5 -->
      <g style="fill: #262626" transform="translate(67.556658 334.557813) scale(0.1 -0.1)">
       <defs>
        <path id="ArialMT-35" d="M 266 1200 
L 856 1250 
Q 922 819 1161 601 
Q 1400 384 1738 384 
Q 2144 384 2425 690 
Q 2706 997 2706 1503 
Q 2706 1984 2436 2262 
Q 2166 2541 1728 2541 
Q 1456 2541 1237 2417 
Q 1019 2294 894 2097 
L 366 2166 
L 809 4519 
L 3088 4519 
L 3088 3981 
L 1259 3981 
L 1013 2750 
Q 1425 3038 1878 3038 
Q 2478 3038 2890 2622 
Q 3303 2206 3303 1553 
Q 3303 931 2941 478 
Q 2500 -78 1738 -78 
Q 1113 -78 717 272 
Q 322 622 266 1200 
z
" transform="scale(0.015625)"/>
       </defs>
       <use xlink:href="#ArialMT-35"/>
      </g>
     </g>
    </g>
    <g id="xtick_2">
     <g id="line2d_2">
      <path d="M 108.711538 320.4 
L 108.711538 43.2 
" clip-path="url(#pbcb08c3901)" style="fill: none; stroke: #cccccc; stroke-width: 0.8; stroke-linecap: round"/>
     </g>
     <g id="text_2">
      <!-- 10 -->
      <g style="fill: #262626" transform="translate(103.150601 334.557813) scale(0.1 -0.1)">
       <defs>
        <path id="ArialMT-31" d="M 2384 0 
L 1822 0 
L 1822 3584 
Q 1619 3391 1289 3197 
Q 959 3003 697 2906 
L 697 3450 
Q 1169 3672 1522 3987 
Q 1875 4303 2022 4600 
L 2384 4600 
L 2384 0 
z
" transform="scale(0.015625)"/>
        <path id="ArialMT-30" d="M 266 2259 
Q 266 3072 433 3567 
Q 600 4063 929 4331 
Q 1259 4600 1759 4600 
Q 2128 4600 2406 4451 
Q 2684 4303 2865 4023 
Q 3047 3744 3150 3342 
Q 3253 2941 3253 2259 
Q 3253 1453 3087 958 
Q 2922 463 2592 192 
Q 2263 -78 1759 -78 
Q 1097 -78 719 397 
Q 266 969 266 2259 
z
M 844 2259 
Q 844 1131 1108 757 
Q 1372 384 1759 384 
Q 2147 384 2411 759 
Q 2675 1134 2675 2259 
Q 2675 3391 2411 3762 
Q 2147 4134 1753 4134 
Q 1366 4134 1134 3806 
Q 844 3388 844 2259 
z
" transform="scale(0.015625)"/>
       </defs>
       <use xlink:href="#ArialMT-31"/>
       <use xlink:href="#ArialMT-30" transform="translate(55.615234 0)"/>
      </g>
     </g>
    </g>
    <g id="xtick_3">
     <g id="line2d_3">
      <path d="M 147.08595 320.4 
L 147.08595 43.2 
" clip-path="url(#pbcb08c3901)" style="fill: none; stroke: #cccccc; stroke-width: 0.8; stroke-linecap: round"/>
     </g>
     <g id="text_3">
      <!-- 15 -->
      <g style="fill: #262626" transform="translate(141.525013 334.557813) scale(0.1 -0.1)">
       <use xlink:href="#ArialMT-31"/>
       <use xlink:href="#ArialMT-35" transform="translate(55.615234 0)"/>
      </g>
     </g>
    </g>
    <g id="xtick_4">
     <g id="line2d_4">
      <path d="M 185.460362 320.4 
L 185.460362 43.2 
" clip-path="url(#pbcb08c3901)" style="fill: none; stroke: #cccccc; stroke-width: 0.8; stroke-linecap: round"/>
     </g>
     <g id="text_4">
      <!-- 20 -->
      <g style="fill: #262626" transform="translate(179.899425 334.557813) scale(0.1 -0.1)">
       <defs>
        <path id="ArialMT-32" d="M 3222 541 
L 3222 0 
L 194 0 
Q 188 203 259 391 
Q 375 700 629 1000 
Q 884 1300 1366 1694 
Q 2113 2306 2375 2664 
Q 2638 3022 2638 3341 
Q 2638 3675 2398 3904 
Q 2159 4134 1775 4134 
Q 1369 4134 1125 3890 
Q 881 3647 878 3216 
L 300 3275 
Q 359 3922 746 4261 
Q 1134 4600 1788 4600 
Q 2447 4600 2831 4234 
Q 3216 3869 3216 3328 
Q 3216 3053 3103 2787 
Q 2991 2522 2730 2228 
Q 2469 1934 1863 1422 
Q 1356 997 1212 845 
Q 1069 694 975 541 
L 3222 541 
z
" transform="scale(0.015625)"/>
       </defs>
       <use xlink:href="#ArialMT-32"/>
       <use xlink:href="#ArialMT-30" transform="translate(55.615234 0)"/>
      </g>
     </g>
    </g>
    <g id="xtick_5">
     <g id="line2d_5">
      <path d="M 223.834774 320.4 
L 223.834774 43.2 
" clip-path="url(#pbcb08c3901)" style="fill: none; stroke: #cccccc; stroke-width: 0.8; stroke-linecap: round"/>
     </g>
     <g id="text_5">
      <!-- 25 -->
      <g style="fill: #262626" transform="translate(218.273837 334.557813) scale(0.1 -0.1)">
       <use xlink:href="#ArialMT-32"/>
       <use xlink:href="#ArialMT-35" transform="translate(55.615234 0)"/>
      </g>
     </g>
    </g>
    <g id="xtick_6">
     <g id="line2d_6">
      <path d="M 262.209186 320.4 
L 262.209186 43.2 
" clip-path="url(#pbcb08c3901)" style="fill: none; stroke: #cccccc; stroke-width: 0.8; stroke-linecap: round"/>
     </g>
     <g id="text_6">
      <!-- 30 -->
      <g style="fill: #262626" transform="translate(256.648249 334.557813) scale(0.1 -0.1)">
       <defs>
        <path id="ArialMT-33" d="M 269 1209 
L 831 1284 
Q 928 806 1161 595 
Q 1394 384 1728 384 
Q 2125 384 2398 659 
Q 2672 934 2672 1341 
Q 2672 1728 2419 1979 
Q 2166 2231 1775 2231 
Q 1616 2231 1378 2169 
L 1441 2663 
Q 1497 2656 1531 2656 
Q 1891 2656 2178 2843 
Q 2466 3031 2466 3422 
Q 2466 3731 2256 3934 
Q 2047 4138 1716 4138 
Q 1388 4138 1169 3931 
Q 950 3725 888 3313 
L 325 3413 
Q 428 3978 793 4289 
Q 1159 4600 1703 4600 
Q 2078 4600 2393 4439 
Q 2709 4278 2876 4000 
Q 3044 3722 3044 3409 
Q 3044 3113 2884 2869 
Q 2725 2625 2413 2481 
Q 2819 2388 3044 2092 
Q 3269 1797 3269 1353 
Q 3269 753 2831 336 
Q 2394 -81 1725 -81 
Q 1122 -81 723 278 
Q 325 638 269 1209 
z
" transform="scale(0.015625)"/>
       </defs>
       <use xlink:href="#ArialMT-33"/>
       <use xlink:href="#ArialMT-30" transform="translate(55.615234 0)"/>
      </g>
     </g>
    </g>
    <g id="xtick_7">
     <g id="line2d_7">
      <path d="M 300.583598 320.4 
L 300.583598 43.2 
" clip-path="url(#pbcb08c3901)" style="fill: none; stroke: #cccccc; stroke-width: 0.8; stroke-linecap: round"/>
     </g>
     <g id="text_7">
      <!-- 35 -->
      <g style="fill: #262626" transform="translate(295.022661 334.557813) scale(0.1 -0.1)">
       <use xlink:href="#ArialMT-33"/>
       <use xlink:href="#ArialMT-35" transform="translate(55.615234 0)"/>
      </g>
     </g>
    </g>
    <g id="xtick_8"/>
    <g id="xtick_9"/>
    <g id="xtick_10"/>
    <g id="xtick_11"/>
    <g id="xtick_12"/>
    <g id="xtick_13"/>
    <g id="xtick_14"/>
    <g id="xtick_15"/>
    <g id="xtick_16"/>
    <g id="xtick_17"/>
    <g id="xtick_18"/>
    <g id="xtick_19"/>
    <g id="xtick_20"/>
    <g id="xtick_21"/>
    <g id="xtick_22"/>
    <g id="xtick_23"/>
    <g id="xtick_24"/>
    <g id="xtick_25"/>
    <g id="xtick_26"/>
    <g id="xtick_27"/>
    <g id="xtick_28"/>
    <g id="xtick_29"/>
    <g id="xtick_30"/>
    <g id="xtick_31"/>
    <g id="xtick_32"/>
    <g id="xtick_33"/>
    <g id="xtick_34"/>
    <g id="xtick_35"/>
   </g>
   <g id="matplotlib.axis_2">
    <g id="ytick_1">
     <g id="line2d_8">
      <path d="M 45 288.605482 
L 324 288.605482 
" clip-path="url(#pbcb08c3901)" style="fill: none; stroke: #cccccc; stroke-width: 0.8; stroke-linecap: round"/>
     </g>
     <g id="text_8">
      <!-- 5 -->
      <g style="fill: #262626" transform="translate(32.439062 292.184388) scale(0.1 -0.1)">
       <use xlink:href="#ArialMT-35"/>
      </g>
     </g>
    </g>
    <g id="ytick_2">
     <g id="line2d_9">
      <path d="M 45 248.69266 
L 324 248.69266 
" clip-path="url(#pbcb08c3901)" style="fill: none; stroke: #cccccc; stroke-width: 0.8; stroke-linecap: round"/>
     </g>
     <g id="text_9">
      <!-- 10 -->
      <g style="fill: #262626" transform="translate(26.878125 252.271566) scale(0.1 -0.1)">
       <use xlink:href="#ArialMT-31"/>
       <use xlink:href="#ArialMT-30" transform="translate(55.615234 0)"/>
      </g>
     </g>
    </g>
    <g id="ytick_3">
     <g id="line2d_10">
      <path d="M 45 208.779838 
L 324 208.779838 
" clip-path="url(#pbcb08c3901)" style="fill: none; stroke: #cccccc; stroke-width: 0.8; stroke-linecap: round"/>
     </g>
     <g id="text_10">
      <!-- 15 -->
      <g style="fill: #262626" transform="translate(26.878125 212.358744) scale(0.1 -0.1)">
       <use xlink:href="#ArialMT-31"/>
       <use xlink:href="#ArialMT-35" transform="translate(55.615234 0)"/>
      </g>
     </g>
    </g>
    <g id="ytick_4">
     <g id="line2d_11">
      <path d="M 45 168.867016 
L 324 168.867016 
" clip-path="url(#pbcb08c3901)" style="fill: none; stroke: #cccccc; stroke-width: 0.8; stroke-linecap: round"/>
     </g>
     <g id="text_11">
      <!-- 20 -->
      <g style="fill: #262626" transform="translate(26.878125 172.445923) scale(0.1 -0.1)">
       <use xlink:href="#ArialMT-32"/>
       <use xlink:href="#ArialMT-30" transform="translate(55.615234 0)"/>
      </g>
     </g>
    </g>
    <g id="ytick_5">
     <g id="line2d_12">
      <path d="M 45 128.954194 
L 324 128.954194 
" clip-path="url(#pbcb08c3901)" style="fill: none; stroke: #cccccc; stroke-width: 0.8; stroke-linecap: round"/>
     </g>
     <g id="text_12">
      <!-- 25 -->
      <g style="fill: #262626" transform="translate(26.878125 132.533101) scale(0.1 -0.1)">
       <use xlink:href="#ArialMT-32"/>
       <use xlink:href="#ArialMT-35" transform="translate(55.615234 0)"/>
      </g>
     </g>
    </g>
    <g id="ytick_6">
     <g id="line2d_13">
      <path d="M 45 89.041373 
L 324 89.041373 
" clip-path="url(#pbcb08c3901)" style="fill: none; stroke: #cccccc; stroke-width: 0.8; stroke-linecap: round"/>
     </g>
     <g id="text_13">
      <!-- 30 -->
      <g style="fill: #262626" transform="translate(26.878125 92.620279) scale(0.1 -0.1)">
       <use xlink:href="#ArialMT-33"/>
       <use xlink:href="#ArialMT-30" transform="translate(55.615234 0)"/>
      </g>
     </g>
    </g>
    <g id="ytick_7">
     <g id="line2d_14">
      <path d="M 45 49.128551 
L 324 49.128551 
" clip-path="url(#pbcb08c3901)" style="fill: none; stroke: #cccccc; stroke-width: 0.8; stroke-linecap: round"/>
     </g>
     <g id="text_14">
      <!-- 35 -->
      <g style="fill: #262626" transform="translate(26.878125 52.707457) scale(0.1 -0.1)">
       <use xlink:href="#ArialMT-33"/>
       <use xlink:href="#ArialMT-35" transform="translate(55.615234 0)"/>
      </g>
     </g>
    </g>
    <g id="ytick_8"/>
    <g id="ytick_9"/>
    <g id="ytick_10"/>
    <g id="ytick_11"/>
    <g id="ytick_12"/>
    <g id="ytick_13"/>
    <g id="ytick_14"/>
    <g id="ytick_15"/>
    <g id="ytick_16"/>
    <g id="ytick_17"/>
    <g id="ytick_18"/>
    <g id="ytick_19"/>
    <g id="ytick_20"/>
    <g id="ytick_21"/>
    <g id="ytick_22"/>
    <g id="ytick_23"/>
    <g id="ytick_24"/>
    <g id="ytick_25"/>
    <g id="ytick_26"/>
    <g id="ytick_27"/>
    <g id="ytick_28"/>
    <g id="ytick_29"/>
    <g id="ytick_30"/>
    <g id="ytick_31"/>
    <g id="ytick_32"/>
    <g id="ytick_33"/>
    <g id="ytick_34"/>
   </g>
   <g id="PathCollection_1">
    <defs>
     <path id="m2f2fe9b0d2" d="M 0.757364 -8.537651 
L 0.757364 -8.537651 
C 0.757363 -10.466022 0.647929 -12.317386 0.453342 -13.680952 
C 0.258756 -15.044518 -0.005442 -15.811381 -0.28063 -15.811386 
L -0.28063 -15.811386 
C -0.416938 -15.811388 -0.551922 -15.623241 -0.677854 -15.257711 
C -0.803787 -14.892181 -0.918221 -14.356378 -1.014605 -13.680965 
C -1.11099 -13.005551 -1.187452 -12.203664 -1.239615 -11.321193 
C -1.291779 -10.438722 -1.318628 -9.49283 -1.318629 -8.537651 
L -1.318629 -8.537651 
C -1.318629 -7.582471 -1.291779 -6.636578 -1.239616 -5.754107 
C -1.187453 -4.871636 -1.110991 -4.069747 -1.014606 -3.394334 
C -0.918221 -2.71892 -0.803787 -2.183116 -0.677855 -1.817586 
C -0.551922 -1.452056 -0.416939 -1.263908 -0.28063 -1.26391 
L -0.28063 -1.26391 
C -0.005442 -1.263915 0.258756 -2.030779 0.453343 -3.394346 
C 0.647929 -4.757914 0.757364 -6.609278 0.757364 -8.537651 
z
M -0.324928 -1.043728 
L -2.635056 0.014246 
L -0.324928 1.072236 
L -0.324928 -1.043728 
z
M 0.99417 2.039588 
L 3.612644 2.039588 
C 4.185259 2.039588 4.646249 1.578603 4.646249 1.005982 
L 4.646249 -0.923414 
C 4.646249 -1.496035 4.185259 -1.95702 3.612644 -1.95702 
L 0.99417 -1.95702 
C 0.421555 -1.95702 -0.039435 -1.496035 -0.039435 -0.923414 
L -0.039435 1.005982 
C -0.039435 1.578603 0.421555 2.039588 0.99417 2.039588 
z
M 0.762886 8.473484 
L 0.762886 8.473484 
C 0.762886 6.545111 0.653452 4.693747 0.458865 3.330179 
C 0.264278 1.966612 0.00008 1.199748 -0.275107 1.199743 
L -0.275107 1.199743 
C -0.411416 1.199741 -0.546399 1.387889 -0.672332 1.753419 
C -0.798265 2.118949 -0.912698 2.654753 -1.009083 3.330167 
C -1.105468 4.00558 -1.18193 4.807469 -1.234093 5.68994 
C -1.286256 6.572411 -1.313106 7.518303 -1.313106 8.473484 
L -1.313106 8.473484 
C -1.313106 9.428663 -1.286256 10.374555 -1.234093 11.257026 
C -1.18193 12.139497 -1.105468 12.941384 -1.009083 13.616797 
C -0.912698 14.292211 -0.798265 14.828014 -0.672332 15.193544 
C -0.546399 15.559074 -0.411416 15.747221 -0.275107 15.747219 
L -0.275107 15.747219 
C 0.00008 15.747214 0.264278 14.980351 0.458865 13.616785 
C 0.653452 12.253218 0.762886 10.401855 0.762886 8.473484 
z
" style="stroke: #db5f57"/>
    </defs>
    <g clip-path="url(#pbcb08c3901)">
     <use xlink:href="#m2f2fe9b0d2" x="311.318182" y="222.527823" style="fill: #db5f57; stroke: #db5f57"/>
     <use xlink:href="#m2f2fe9b0d2" x="288.27388" y="198.909921" style="fill: #db5f57; stroke: #db5f57"/>
     <use xlink:href="#m2f2fe9b0d2" x="264.808373" y="174.860329" style="fill: #db5f57; stroke: #db5f57"/>
     <use xlink:href="#m2f2fe9b0d2" x="241.449583" y="150.920111" style="fill: #db5f57; stroke: #db5f57"/>
     <use xlink:href="#m2f2fe9b0d2" x="218.455808" y="127.353993" style="fill: #db5f57; stroke: #db5f57"/>
     <use xlink:href="#m2f2fe9b0d2" x="194.991559" y="103.305691" style="fill: #db5f57; stroke: #db5f57"/>
     <use xlink:href="#m2f2fe9b0d2" x="171.789384" y="79.525986" style="fill: #db5f57; stroke: #db5f57"/>
     <use xlink:href="#m2f2fe9b0d2" x="148.639624" y="55.8" style="fill: #db5f57; stroke: #db5f57"/>
     <use xlink:href="#m2f2fe9b0d2" x="267.616615" y="243.02804" style="fill: #db5f57; stroke: #db5f57"/>
     <use xlink:href="#m2f2fe9b0d2" x="243.924686" y="219.631606" style="fill: #db5f57; stroke: #db5f57"/>
     <use xlink:href="#m2f2fe9b0d2" x="220.460587" y="196.460161" style="fill: #db5f57; stroke: #db5f57"/>
     <use xlink:href="#m2f2fe9b0d2" x="196.889156" y="173.182723" style="fill: #db5f57; stroke: #db5f57"/>
     <use xlink:href="#m2f2fe9b0d2" x="172.990459" y="149.582101" style="fill: #db5f57; stroke: #db5f57"/>
     <use xlink:href="#m2f2fe9b0d2" x="149.628428" y="126.51145" style="fill: #db5f57; stroke: #db5f57"/>
     <use xlink:href="#m2f2fe9b0d2" x="126.056996" y="103.234011" style="fill: #db5f57; stroke: #db5f57"/>
     <use xlink:href="#m2f2fe9b0d2" x="246.706775" y="287.299784" style="fill: #db5f57; stroke: #db5f57"/>
     <use xlink:href="#m2f2fe9b0d2" x="222.806915" y="264.480996" style="fill: #db5f57; stroke: #db5f57"/>
     <use xlink:href="#m2f2fe9b0d2" x="198.898036" y="241.653598" style="fill: #db5f57; stroke: #db5f57"/>
     <use xlink:href="#m2f2fe9b0d2" x="175.150353" y="218.980105" style="fill: #db5f57; stroke: #db5f57"/>
     <use xlink:href="#m2f2fe9b0d2" x="151.189246" y="196.10284" style="fill: #db5f57; stroke: #db5f57"/>
     <use xlink:href="#m2f2fe9b0d2" x="127.237157" y="173.234186" style="fill: #db5f57; stroke: #db5f57"/>
     <use xlink:href="#m2f2fe9b0d2" x="103.385016" y="150.46096" style="fill: #db5f57; stroke: #db5f57"/>
     <use xlink:href="#m2f2fe9b0d2" x="79.846249" y="127.986932" style="fill: #db5f57; stroke: #db5f57"/>
     <use xlink:href="#m2f2fe9b0d2" x="202.79611" y="307.8" style="fill: #db5f57; stroke: #db5f57"/>
     <use xlink:href="#m2f2fe9b0d2" x="178.653245" y="285.612638" style="fill: #db5f57; stroke: #db5f57"/>
     <use xlink:href="#m2f2fe9b0d2" x="154.341202" y="263.2698" style="fill: #db5f57; stroke: #db5f57"/>
     <use xlink:href="#m2f2fe9b0d2" x="130.13417" y="241.023469" style="fill: #db5f57; stroke: #db5f57"/>
     <use xlink:href="#m2f2fe9b0d2" x="105.959355" y="218.806745" style="fill: #db5f57; stroke: #db5f57"/>
     <use xlink:href="#m2f2fe9b0d2" x="81.881892" y="196.679487" style="fill: #db5f57; stroke: #db5f57"/>
     <use xlink:href="#m2f2fe9b0d2" x="57.681818" y="174.43955" style="fill: #db5f57; stroke: #db5f57"/>
    </g>
   </g>
   <g id="patch_3">
    <path d="M 45 320.4 
L 45 43.2 
" style="fill: none; stroke: #cccccc; stroke-width: 0.8; stroke-linejoin: miter; stroke-linecap: square"/>
   </g>
   <g id="patch_4">
    <path d="M 324 320.4 
L 324 43.2 
" style="fill: none; stroke: #cccccc; stroke-width: 0.8; stroke-linejoin: miter; stroke-linecap: square"/>
   </g>
   <g id="patch_5">
    <path d="M 45 320.4 
L 324 320.4 
" style="fill: none; stroke: #cccccc; stroke-width: 0.8; stroke-linejoin: miter; stroke-linecap: square"/>
   </g>
   <g id="patch_6">
    <path d="M 45 43.2 
L 324 43.2 
" style="fill: none; stroke: #cccccc; stroke-width: 0.8; stroke-linejoin: miter; stroke-linecap: square"/>
   </g>
  </g>
 </g>
 <defs>
  <clipPath id="pbcb08c3901">
   <rect x="45" y="43.2" width="279" height="277.2"/>
  </clipPath>
 </defs>
</svg>
